<svg width="512" height="512" viewBox="0 0 512 512" fill="none" xmlns="http://www.w3.org/2000/svg">
  <rect width="512" height="512" rx="64" fill="url(#gradient)"/>
  <defs>
    <linearGradient id="gradient" x1="0%" y1="0%" x2="100%" y2="100%">
      <stop offset="0%" style="stop-color:#2563eb;stop-opacity:1" />
      <stop offset="100%" style="stop-color:#7c3aed;stop-opacity:1" />
    </linearGradient>
  </defs>
  
  <!-- Shield/Security Icon -->
  <path d="M256 80L128 128V256C128 352 256 432 256 432S384 352 384 256V128L256 80Z" fill="white" fill-opacity="0.9"/>
  <path d="M256 120L176 152V256C176 320 256 376 256 376S336 320 336 256V152L256 120Z" fill="url(#innerGradient)"/>
  
  <!-- Key Icon Inside Shield -->
  <circle cx="240" cy="220" r="16" fill="white"/>
  <rect x="248" y="228" width="6" height="32" rx="3" fill="white"/>
  <rect x="248" y="252" width="12" height="6" rx="3" fill="white"/>
  <rect x="248" y="268" width="8" height="6" rx="3" fill="white"/>
  
  <!-- IdP Text -->
  <text x="256" y="480" font-family="Arial, sans-serif" font-size="48" font-weight="bold" text-anchor="middle" fill="white">IdP</text>
  
  <defs>
    <linearGradient id="innerGradient" x1="0%" y1="0%" x2="100%" y2="100%">
      <stop offset="0%" style="stop-color:#3b82f6;stop-opacity:1" />
      <stop offset="100%" style="stop-color:#8b5cf6;stop-opacity:1" />
    </linearGradient>
  </defs>
</svg>
